<svg xmlns="http://www.w3.org/2000/svg" width="48" height="48" viewBox="0 0 12.699999 12.699999">
  <g transform="matrix(.09172 0 0 .09172 -1.8072271 -19.763561)">
    <ellipse style="fill:var(--color-fill);stroke:var(--color-stroke);transition:inherit;opacity:1;fill-opacity:1;fill-rule:nonzero;stroke-width:2.72574997;stroke-linecap:round;stroke-linejoin:round;stroke-miterlimit:4;stroke-dasharray:none;stroke-opacity:1;paint-order:normal" ry="14.901679" rx="14.90167" cx="88.905533" cy="314.19791"/>
    <path style="fill:var(--color-button-a);fill-opacity:1;stroke:none;stroke-width:1px;stroke-linecap:butt;stroke-linejoin:miter;stroke-opacity:1" d="M87.3124923 305.73125515l-6.34999944 16.13958191h4.23333296l1.32291655-4.23333296h5.2916662l1.32291655 4.23333296h4.23333296l-6.34999944-16.13958191zm1.85208317 4.49791627l1.33325117 4.02404333H87.8313243z"/>
    <ellipse style="fill:var(--color-fill);stroke:var(--color-stroke);opacity:1;fill-opacity:1;fill-rule:nonzero;stroke-width:2.72574997;stroke-linecap:round;stroke-linejoin:round;stroke-miterlimit:4;stroke-dasharray:none;stroke-opacity:1;paint-order:normal" cy="284.82101" cx="118.49409" rx="14.90167" ry="14.901679" transform="translate(0 .00000238)"/>
    <path style="fill:var(--color-button-b);fill-opacity:1;stroke:none;stroke-width:1px;stroke-linecap:butt;stroke-linejoin:miter;stroke-opacity:1" d="M113.24165668 277.15625767v15.8749986h4.49791627c6.74878205 0 9.69958975-2.5098215 6.61458275-8.73124923v-.52916662c1.95999612-6.08038005-1.5185124-6.57742996-6.61458275-6.61458275zm3.70416634 3.17499972h2.91041641c1.85208052 0 1.85208052 2.11666648 0 2.11666648h-2.91041641zm0 6.08541613h3.17499972c1.85208052 0 1.85208052 2.38124979 0 2.38124979h-3.17499972z"/>
    <ellipse style="fill:var(--color-fill);stroke:var(--color-stroke);opacity:1;fill-opacity:1;fill-rule:nonzero;stroke-width:2.72574997;stroke-linecap:round;stroke-linejoin:round;stroke-miterlimit:4;stroke-dasharray:none;stroke-opacity:1;paint-order:normal" cy="255.23444" cx="88.949593" rx="14.90167" ry="14.901679"/>
    <path style="fill:var(--color-button-y);fill-opacity:1;stroke:none;stroke-width:.26458332;stroke-linecap:butt;stroke-linejoin:miter;stroke-miterlimit:4;stroke-dasharray:none;stroke-opacity:1" d="M91.016657 263.39793v-6.87917l6.085418-9.26042h-4.7625l-3.175 5.55625h-.529166l-3.175-5.55625h-4.7625l6.085417 9.26042v6.87917z"/>
    <ellipse style="fill:var(--color-fill);stroke:var(--color-stroke);opacity:1;fill-opacity:1;fill-rule:nonzero;stroke-width:2.72574997;stroke-linecap:round;stroke-linejoin:round;stroke-miterlimit:4;stroke-dasharray:none;stroke-opacity:1;paint-order:normal" cy="284.86777" cx="59.382408" rx="14.90167" ry="14.901679" transform="translate(0 .00000238)"/>
    <path style="fill:var(--color-button-x);fill-opacity:1;stroke:none;stroke-width:.60000002;stroke-linecap:butt;stroke-linejoin:miter;stroke-miterlimit:4;stroke-dasharray:none;stroke-opacity:1" d="M51.32916214 276.89167436l5.55624951 7.67291599-5.82083282 8.46666592h4.49791627l3.43958303-5.02708289h.52916662l3.43958303 5.02708289h4.49791627l-5.82083282-8.46666592 5.55624951-7.67291599h-4.76249958l-2.91041641 4.23333296h-.52916662l-2.91041641-4.23333296z"/>
  </g>
</svg>