<svg xmlns="http://www.w3.org/2000/svg" width="48" height="48" viewBox="0 0 12.7 12.7" style="fill:var(--color-fill);stroke:var(--color-stroke);">
  <path style="fill-opacity:1;stroke-width:.2941069;stroke-linecap:butt;stroke-linejoin:round;stroke-miterlimit:4;stroke-dasharray:none;stroke-opacity:1" d="M3.5751397 2.2656384c-.8902122.0349341-1.3964505.5492991-1.8514686 1.3455832C1.0871066 4.8072919.68910106 6.2250649.35896886 7.7063619c-.3033448 1.8200713.4750803 2.3898001 1.06137764 2.7299221.8105404-.9491658 1.2589765-2.0060378 2.7304381-2.7299221h4.3984659c1.4714605.7238843 1.9193795 1.7807563 2.7299195 2.7299221.586298-.340122 1.365239-.9098508 1.061895-2.7299221-.330132-1.481297-.728655-2.89907-1.365219-4.0951403-.606691-1.061712-1.3038505-1.6226405-2.8818415-1.2138153H4.6055132c-.3944975-.1022063-.733636-.1434126-1.0303735-.1317679zm2.8503214.6438543a.45979393.45979707 0 01.4598956.4598959.45979393.45979707 0 01-.4598956.4598963.45979393.45979707 0 01-.459379-.4598963.45979393.45979707 0 01.459379-.4598959z"/>
</svg>